<svg width="46" height="17" viewBox="0 0 46 17" fill="none" xmlns="http://www.w3.org/2000/svg">
<path d="M45.0228 1.86408C45.2927 1.92268 45.5589 1.75143 45.6175 1.48158C45.6761 1.21173 45.5049 0.945462 45.235 0.88686L45.1289 1.37547L45.0228 1.86408ZM0.128906 15.6855L0.000754341 16.1688C5.4317 17.6089 9.34458 17.0529 12.5716 15.4565C15.7621 13.8781 18.2478 11.2922 20.824 8.80677C23.4207 6.30163 26.1408 3.86122 29.8634 2.39242C33.5751 0.927917 38.334 0.411535 45.0228 1.86408L45.1289 1.37547L45.235 0.88686C38.3935 -0.59885 33.4276 -0.088895 29.4964 1.4622C25.5761 3.00899 22.7353 5.57344 20.1297 8.08709C17.5038 10.6204 15.1459 13.0673 12.1282 14.5602C9.147 16.035 5.487 16.589 0.257058 15.2022L0.128906 15.6855Z" fill="url(#paint0_linear_210_2212)"/>
<defs>
<linearGradient id="paint0_linear_210_2212" x1="2.38832" y1="19.6807" x2="43.4816" y2="1.23444" gradientUnits="userSpaceOnUse">
<stop stop-color="#010C23"/>
<stop offset="0.504808" stop-color="#0076FE"/>
<stop offset="1" stop-color="#12253A"/>
</linearGradient>
</defs>
</svg>
