<svg width="72" height="72" viewBox="0 0 72 72" fill="none" xmlns="http://www.w3.org/2000/svg">
<rect x="0.5" y="0.5" width="71" height="71" rx="11.5" fill="#E7F0FB" stroke="#D4E4F7"/>
<path fill-rule="evenodd" clip-rule="evenodd" d="M30.7017 15.0044C26.7552 15.0396 24.3799 15.2061 22.5657 15.5748C21.3324 15.8254 20.2147 16.2259 19.3807 16.716C18.8148 17.0485 18.3724 17.3931 17.8808 17.8842C17.2763 18.488 16.8572 19.0668 16.4815 19.8169C15.6909 21.3953 15.2797 23.4442 15.1109 26.6454C15.0138 28.4887 15.0007 29.5372 15.0007 35.4958C15.0007 41.4543 15.0138 42.5028 15.1109 44.3461C15.3285 48.4725 15.9609 50.7886 17.3443 52.5256C17.5699 52.8089 18.1796 53.4188 18.4627 53.6445C20.3802 55.173 22.9205 55.7761 28.1298 55.9395C30.6937 56.02 40.2744 56.0202 42.8306 55.9399C47.6899 55.7871 50.1472 55.2678 52.0274 53.996C52.4322 53.7223 52.6975 53.5003 53.0892 53.1079C53.7324 52.4634 54.158 51.8625 54.551 51.0439C55.5207 49.0244 55.9 46.3077 55.9536 40.9972C55.9608 40.2841 55.9743 39.7007 55.9835 39.7007C55.9928 39.7007 56.0002 37.7972 56 35.4707C55.9998 33.1443 55.9923 31.2525 55.9832 31.2667C55.9742 31.281 55.9609 30.7088 55.9536 29.9953C55.9347 28.1253 55.8871 26.8418 55.7892 25.5642C55.5268 22.1399 54.8923 20.0575 53.6264 18.4659C53.4011 18.1826 52.7909 17.5721 52.5077 17.3467C50.9148 16.0787 48.869 15.4538 45.4225 15.1828C44.5788 15.1165 43.4901 15.0668 42.0701 15.0299C41.3544 15.0114 32.2214 14.9908 30.7017 15.0044ZM21.9042 27.5415C21.9094 27.5828 21.9188 27.8013 21.9252 28.027C21.958 29.1965 22.1077 30.6425 22.3166 31.8056C23.5869 38.8806 27.5996 43.2457 33.7976 44.2949C34.73 44.4528 35.9164 44.544 37.0614 44.5459L37.3266 44.5463V41.4928C37.3266 39.0631 37.3317 38.4392 37.3516 38.4395C37.4072 38.4402 37.9275 38.5189 38.0771 38.5492C39.61 38.8598 40.9535 39.5866 42.0922 40.7212C43.0769 41.7024 43.7771 42.8172 44.2868 44.2159L44.4036 44.5363H46.8245H49.2453L49.239 44.4907C49.2355 44.4655 49.1875 44.2989 49.1324 44.1202C48.5969 42.3853 47.735 40.7923 46.5847 39.4113C45.432 38.0275 43.9365 36.821 42.4513 36.0767L42.2422 35.9719L42.3489 35.909C43.1311 35.4482 44.1641 34.605 44.8797 33.8433C46.2951 32.3367 47.2773 30.7241 47.8511 28.9646C47.9702 28.5994 48.1448 27.9299 48.2013 27.6216L48.2298 27.4664H46.0213H43.8129L43.7905 27.5515C43.7454 27.7225 43.568 28.232 43.4631 28.4915C42.8949 29.8976 42.0666 31.1573 41.0299 32.1919C39.8792 33.3402 38.6483 34.0243 37.4116 34.2025L37.3266 34.2147V30.8406V27.4664H35.125H32.9233V33.3733C32.9233 36.7456 32.9158 39.2802 32.9058 39.2802C32.8961 39.2802 32.8038 39.2542 32.7006 39.2223C32.0678 39.0273 31.4918 38.739 30.9033 38.3226C30.326 37.914 29.6809 37.2724 29.1785 36.607C27.9022 34.9166 27.0626 32.5548 26.7408 29.749C26.665 29.0886 26.5987 28.1243 26.5987 27.6816L26.5987 27.4664H24.2467H21.8948L21.9042 27.5415ZM15 35.4958C15 37.825 15.0023 38.7778 15.0052 37.6132C15.008 36.4486 15.008 34.5429 15.0052 33.3783C15.0023 32.2137 15 33.1665 15 35.4958Z" fill="#0077FF"/>
</svg>
